# Tiled2Unity generated file. Do not modify by hand.
# Wavefront file for 'tiled-arena_mesh_0002.obj'

# Vertices (Count = 12)
v -4384 -384 0
v -4416 -384 0
v -4416 -352 0
v -4384 -352 0
v -4384 -832 0
v -4416 -832 0
v -4416 -800 0
v -4384 -800 0
v -4384 -1280 0
v -4416 -1280 0
v -4416 -1248 0
v -4384 -1248 0

# Texture cooridinates (Count = 4)
vt 0.25 0.8
vt 0.5 0.8
vt 0.5 1
vt 0.25 1

# Normal
vn 0 0 -1

# Mesh description
g tiled-arena_mesh_0002

# Faces
f 1/1/1 2/2/1 3/3/1 4/4/1
f 5/1/1 6/2/1 7/3/1 8/4/1
f 9/1/1 10/2/1 11/3/1 12/4/1

